<?xml version="1.0" encoding="UTF-8"?>
<svg width="74px" height="75px" viewBox="0 0 74 75" version="1.1" xmlns="http://www.w3.org/2000/svg" xmlns:xlink="http://www.w3.org/1999/xlink">
    <!-- Generator: Sketch 57.1 (83088) - https://sketch.com -->
    <title>Group</title>
    <desc>Created with Sketch.</desc>
    <g id="Symbols" stroke="none" stroke-width="1" fill="none" fill-rule="evenodd">
        <g id="Icon-/-80px-/-ic-nuts-and-bolts" transform="translate(-4.000000, -1.000000)">
            <g id="Group" transform="translate(6.000000, 3.000000)">
                <path d="M44.5530537,17.6102408 C45.4983785,17.6102408 46.3718946,18.1145656 46.844557,18.9332408 L52.9712013,29.5424228 C51.3276381,29.0339553 49.5169616,28.5560002 47.511016,28.1112473 C40.5045219,26.5577861 35.0030797,26.1944518 31.4308874,26.3598595 C31.2834588,26.3562657 31.1355872,26.3544584 30.9872934,26.3544584 C21.1232117,26.3544584 13.1267934,34.3508766 13.1267934,44.2149584 C13.1267934,54.0790402 21.1232117,62.0754584 30.9872934,62.0754584 C40.209643,62.0754584 47.7994351,55.0856491 48.7477065,46.1143068 C50.3456184,44.372149 52.1536252,43.0114987 54.1717271,42.0323561 C55.9536313,41.1678118 57.6171097,40.5961838 59.1421857,40.2323162 L60.677129,42.8919584 C61.1497914,43.7106337 61.1497914,44.7192832 60.677129,45.5379584 L46.844557,69.496676 C46.3718946,70.3153512 45.4983785,70.819676 44.5530537,70.819676 L16.8879097,70.819676 C15.9425849,70.819676 15.0690688,70.3153512 14.5964064,69.496676 L0.763834406,45.5379584 C0.291172031,44.7192832 0.291172031,43.7106337 0.763834406,42.8919584 L14.5964064,18.9332408 C15.0690688,18.1145656 15.9425849,17.6102408 16.8879097,17.6102408 L44.5530537,17.6102408 Z" id="Combined-Shape" stroke="#D92327" stroke-width="3.6" stroke-linejoin="round"></path>
                <path d="M47.511016,28.1268416 C59.3116083,30.7432373 64.3544391,34.5086766 68.3717168,38.8755472 C72.3889946,43.2424177 65.8034827,36.4044553 54.1717271,42.0479504 C52.1536252,43.027093 50.3456184,44.3877433 48.7477065,46.1299011 C47.7994351,55.1012434 40.209643,62.0910527 30.9872934,62.0910527 C21.1232117,62.0910527 13.1267934,54.0946345 13.1267934,44.2305527 C13.1267934,34.3664709 21.1232117,26.3700527 30.9872934,26.3700527 C31.1355872,26.3700527 31.2834588,26.37186 31.4308874,26.3754538 C35.0030797,26.2100461 40.5045219,26.5733805 47.511016,28.1268416 Z" id="Path" stroke="#D92327" stroke-width="3.6" stroke-linejoin="round"></path>
                <path d="M41.3404974,35.7048 C41.3404974,37.0341 40.2631974,38.1105 38.9347974,38.1105 C37.6063974,38.1105 36.5290974,37.0341 36.5290974,35.7048 C36.5290974,34.3764 37.6063974,33.3 38.9347974,33.3 C40.2631974,33.3 41.3404974,34.3764 41.3404974,35.7048" id="Fill-2" fill="#D8262C"></path>
                <path d="M32.7270544,3.61446851 C36.6167824,-0.481755491 41.3376784,0.0193645088 41.3376784,0.0193645088 C41.3376784,0.0193645088 41.5726864,4.30221251 37.7512144,7.98026051 C33.6722704,11.9062765 29.6581264,10.7441965 29.6581264,10.7441965 C29.6581264,10.7441965 29.2675984,7.25709251 32.7270544,3.61446851 Z" id="Stroke-11" stroke="#D8262C" stroke-width="3.456" stroke-linejoin="round"></path>
            </g>
        </g>
    </g>
</svg>